<svg xmlns="http://www.w3.org/2000/svg" height="16" viewBox="0 0 16 16">
        <path
            d="M2.2491 2.54707L2.25492 3.5502C2.25631 3.78832 2.44995 3.98196 2.68806 3.98334L10.5459 4.02898L1.94795 12.627C1.78173 12.7932 1.78332 13.0668 1.95148 13.2349L2.66489 13.9483C2.83305 14.1165 3.10663 14.1181 3.27285 13.9519L11.8708 5.35388L11.9165 13.2118C11.9179 13.4499 12.1115 13.6435 12.3496 13.6449L13.3528 13.6507C13.5909 13.6521 13.7823 13.4607 13.7809 13.2226L13.7193 2.61369C13.7179 2.37558 13.5242 2.18194 13.2861 2.18056L2.67723 2.11893C2.43912 2.11755 2.24771 2.30895 2.2491 2.54707Z"/>
</svg>