<svg height="48" viewBox="0 0 64 64" xmlns="http://www.w3.org/2000/svg">
<g clip-path="url(#clip0_221_220)" filter="url(#filter0_b_221_220)">
<g filter="url(#filter1_d_221_220)">
<path d="M18.2368 30.0772H13.8952C13.6145 30.0765 13.345 30.1873 13.1459 30.3852C12.9468 30.5831 12.8343 30.8519 12.8333 31.1326V45.2745C12.8333 45.8555 13.3077 46.3299 13.8952 46.3299H18.2368C18.8177 46.3299 19.2921 45.8555 19.2921 45.2745V31.1326C19.2921 30.551 18.8177 30.0772 18.2368 30.0772ZM26.8083 23.4001H22.4666C22.1859 23.3994 21.9164 23.5101 21.7173 23.708C21.5182 23.9059 21.4058 24.1747 21.4048 24.4554V45.2745C21.4048 45.8555 21.8792 46.3299 22.4666 46.3299H26.8083C27.3892 46.3299 27.8636 45.8555 27.8636 45.2745V42.7902C27.3158 41.5412 27.0357 40.1784 27.0357 38.7761C27.0357 37.3737 27.3229 36.011 27.8636 34.762V24.4554C27.8636 23.8745 27.3892 23.4001 26.8083 23.4001ZM31.0362 26.3523C30.7554 26.3516 30.4859 26.4624 30.2868 26.6603C30.0877 26.8581 29.9753 27.127 29.9743 27.4077V31.6421L30.0074 31.6089C31.7228 29.8836 34.006 28.8394 36.4331 28.6703V27.4077C36.4331 26.8267 35.9587 26.3523 35.3778 26.3523H31.0362ZM38.5503 22.398V28.7366C40.7454 29.0265 42.7821 30.0367 44.3411 31.6089C44.5815 31.8494 44.8018 32.0963 45.0091 32.3569V22.398C45.0091 21.817 44.5348 21.3427 43.9538 21.3427H39.6122C39.3315 21.342 39.062 21.4527 38.8629 21.6506C38.6638 21.8485 38.5514 22.1173 38.5503 22.398Z" fill="url(#paint0_linear_221_220)"/>
</g>
<g filter="url(#filter2_d_221_220)">
<path d="M15.1396 25.7714C15.599 26.0943 16.2222 25.9858 16.5426 25.5439L23.9892 15.238L33.18 24.1214C33.2799 24.2189 33.3997 24.2938 33.5311 24.341C33.6625 24.3882 33.8025 24.4066 33.9416 24.395C34.0821 24.3869 34.2192 24.3487 34.3436 24.283C34.4681 24.2173 34.577 24.1256 34.6629 24.0142L41.5688 15.1984L42.9446 16.3336C42.984 16.3658 43.0314 16.3866 43.0818 16.3937C43.1321 16.4009 43.1835 16.3941 43.2302 16.3742C43.277 16.3542 43.3175 16.3219 43.3472 16.2806C43.3769 16.2393 43.3947 16.1907 43.3988 16.14L43.8329 11.3045C43.8362 11.259 43.8285 11.2133 43.8104 11.1714C43.7923 11.1295 43.7644 11.0926 43.729 11.0638C43.6936 11.035 43.6518 11.0151 43.6071 11.0059C43.5624 10.9966 43.5162 10.9983 43.4722 11.0108L38.8102 12.3533C38.7615 12.3669 38.7174 12.3935 38.6826 12.4302C38.6478 12.4669 38.6236 12.5123 38.6126 12.5617C38.6016 12.611 38.6042 12.6625 38.6201 12.7104C38.6361 12.7584 38.6647 12.8012 38.703 12.8342L40.019 13.9227L33.7739 21.9041L24.5507 12.9941C24.4471 12.8954 24.3241 12.8195 24.1894 12.7711C24.0548 12.7228 23.9116 12.7031 23.7689 12.7134C23.6252 12.7271 23.4861 12.771 23.3607 12.8424C23.2352 12.9137 23.1263 13.0108 23.0411 13.1273L14.9193 24.369C14.8416 24.4755 14.7857 24.5963 14.7548 24.7245C14.7238 24.8526 14.7184 24.9856 14.7388 25.1158C14.7593 25.2461 14.8052 25.371 14.874 25.4835C14.9428 25.596 15.033 25.6938 15.1396 25.7714ZM49.6757 47.3443L44.3105 43.9255C46.7969 40.493 46.4927 35.6484 43.3982 32.5538C39.9592 29.1148 34.3848 29.1213 30.9523 32.5538C27.5133 35.9928 27.5133 41.5607 30.9523 44.9997C34.0469 48.0942 38.885 48.4049 42.324 45.912L45.7428 51.2772C46.7221 52.8108 48.8712 53.0402 50.1546 51.7568C51.4387 50.4727 51.2093 48.3243 49.6757 47.3443ZM42.0471 43.6486C39.3509 46.3448 34.9931 46.3377 32.304 43.6486C31.663 43.0096 31.1545 42.2503 30.8075 41.4143C30.4605 40.5784 30.2819 39.6822 30.2819 38.7771C30.2819 37.8719 30.4605 36.9757 30.8075 36.1398C31.1545 35.3038 31.663 34.5446 32.304 33.9055C34.9931 31.2164 39.3509 31.2093 42.0471 33.9055C44.7362 36.5946 44.7362 40.9596 42.0471 43.6486Z" fill="url(#paint1_linear_221_220)"/>
</g>
</g>
<defs>
<filter id="filter0_b_221_220" x="-15" y="-15" width="94" height="94" filterUnits="userSpaceOnUse" color-interpolation-filters="sRGB">
<feFlood flood-opacity="0" result="BackgroundImageFix"/>
<feGaussianBlur in="BackgroundImageFix" stdDeviation="7.5"/>
<feComposite in2="SourceAlpha" operator="in" result="effect1_backgroundBlur_221_220"/>
<feBlend mode="normal" in="SourceGraphic" in2="effect1_backgroundBlur_221_220" result="shape"/>
</filter>
<filter id="filter1_d_221_220" x="-3.16669" y="9.34265" width="64.1758" height="56.9872" filterUnits="userSpaceOnUse" color-interpolation-filters="sRGB">
<feFlood flood-opacity="0" result="BackgroundImageFix"/>
<feColorMatrix in="SourceAlpha" type="matrix" values="0 0 0 0 0 0 0 0 0 0 0 0 0 0 0 0 0 0 127 0" result="hardAlpha"/>
<feOffset dy="4"/>
<feGaussianBlur stdDeviation="8"/>
<feComposite in2="hardAlpha" operator="out"/>
<feColorMatrix type="matrix" values="0 0 0 0 0.490196 0 0 0 0 0.356863 0 0 0 0 0.65098 0 0 0 1 0"/>
<feBlend mode="normal" in2="BackgroundImageFix" result="effect1_dropShadow_221_220"/>
<feBlend mode="normal" in="SourceGraphic" in2="effect1_dropShadow_221_220" result="shape"/>
</filter>
<filter id="filter2_d_221_220" x="-1.27332" y="-1" width="68.2618" height="73.5901" filterUnits="userSpaceOnUse" color-interpolation-filters="sRGB">
<feFlood flood-opacity="0" result="BackgroundImageFix"/>
<feColorMatrix in="SourceAlpha" type="matrix" values="0 0 0 0 0 0 0 0 0 0 0 0 0 0 0 0 0 0 127 0" result="hardAlpha"/>
<feOffset dy="4"/>
<feGaussianBlur stdDeviation="8"/>
<feComposite in2="hardAlpha" operator="out"/>
<feColorMatrix type="matrix" values="0 0 0 0 0.490196 0 0 0 0 0.356863 0 0 0 0 0.65098 0 0 0 1 0"/>
<feBlend mode="normal" in2="BackgroundImageFix" result="effect1_dropShadow_221_220"/>
<feBlend mode="normal" in="SourceGraphic" in2="effect1_dropShadow_221_220" result="shape"/>
</filter>
<linearGradient id="paint0_linear_221_220" x1="28.9212" y1="21.3427" x2="28.9212" y2="46.3299" gradientUnits="userSpaceOnUse">
<stop stop-color="#7D5BA6"/>
<stop offset="1" stop-color="#B19CC9"/>
</linearGradient>
<linearGradient id="paint1_linear_221_220" x1="32.8576" y1="11" x2="32.8576" y2="52.59" gradientUnits="userSpaceOnUse">
<stop stop-color="#7D5BA6"/>
<stop offset="1" stop-color="#B19CC9"/>
</linearGradient>
<linearGradient id="paint2_linear_221_220" x1="-13.4827" y1="-4.61084" x2="3.85652" y2="77.053" gradientUnits="userSpaceOnUse">
<stop stop-color="white" stop-opacity="0.2"/>
<stop offset="1" stop-color="white" stop-opacity="0"/>
</linearGradient>
<clipPath id="clip0_221_220">
<rect width="64" height="64" rx="4" fill="white"/>
</clipPath>
</defs>
</svg>
