<svg height="48" viewBox="0 0 48 48" xmlns="http://www.w3.org/2000/svg">
<g clip-path="url(#clip0_188_1726)" filter="url(#filter0_b_188_1726)">
<g filter="url(#filter1_d_188_1726)">
<path d="M26.7839 24C26.7839 25.536 25.5359 26.832 23.9999 26.832C23.2319 26.832 22.5119 26.544 22.0319 26.016L21.8399 25.824C21.4559 25.344 21.2159 24.72 21.2159 24.048C21.2159 23.376 21.4559 22.752 21.8399 22.272C21.8879 22.176 21.9839 22.128 22.0319 22.08C22.5599 21.552 23.2319 21.264 23.9999 21.264C25.5359 21.168 26.7839 22.464 26.7839 24Z" fill="url(#paint0_linear_188_1726)"/>
</g>
<g filter="url(#filter2_d_188_1726)">
<path d="M26.7839 24C26.7839 25.536 25.5359 26.832 23.9999 26.832C23.2319 26.832 22.5119 26.544 22.0319 26.016L21.8399 25.824C21.4559 25.344 21.2159 24.72 21.2159 24.048C21.2159 23.376 21.4559 22.752 21.8399 22.272C21.8879 22.176 21.9839 22.128 22.0319 22.08C22.5599 21.552 23.2319 21.264 23.9999 21.264C25.5359 21.168 26.7839 22.464 26.7839 24ZM32.112 20.448C32.064 20.496 32.0639 20.592 32.0639 20.64C32.0639 20.832 32.208 20.976 32.352 20.976C32.256 20.832 32.208 20.64 32.112 20.448ZM32.0639 27.312C32.0639 27.408 32.112 27.456 32.112 27.504C32.208 27.312 32.256 27.12 32.352 26.928C32.16 26.976 32.0639 27.12 32.0639 27.312ZM26.976 15.648C27.0239 15.792 27.168 15.936 27.312 15.936C27.408 15.936 27.4559 15.936 27.5039 15.888C27.3599 15.792 27.1679 15.744 26.976 15.648ZM27.216 32.064C27.0239 32.064 26.8799 32.208 26.8799 32.4C27.0719 32.352 27.2639 32.256 27.4559 32.16C27.36 32.064 27.2639 32.064 27.216 32.064ZM20.4959 15.888C20.5439 15.936 20.6399 15.936 20.6879 15.936C20.8799 15.936 21.0239 15.792 21.0239 15.648C20.8319 15.744 20.6399 15.792 20.4959 15.888ZM20.5439 32.064C20.4959 32.064 20.4479 32.064 20.3999 32.112C20.5439 32.16 20.7359 32.256 20.8799 32.304C20.8319 32.16 20.6879 32.064 20.5439 32.064ZM15.8879 20.448C15.7919 20.64 15.7439 20.832 15.6479 21.024C15.7919 20.976 15.9359 20.832 15.9359 20.688C15.9839 20.592 15.9359 20.544 15.8879 20.448ZM15.6479 26.976C15.6959 27.168 15.7919 27.36 15.8879 27.552C15.9359 27.504 15.9359 27.408 15.9359 27.36C15.9839 27.12 15.8399 26.976 15.6479 26.976Z" fill="url(#paint1_linear_188_1726)"/>
</g>
<g filter="url(#filter3_d_188_1726)">
<path d="M24 18.72C21.12 18.72 18.768 21.072 18.768 23.952C18.768 26.832 21.12 29.184 24 29.184C26.88 29.184 29.232 26.88 29.232 24C29.232 21.072 26.88 18.72 24 18.72ZM27.12 25.68C27.024 25.872 26.88 26.064 26.736 26.256C26.688 26.352 26.592 26.448 26.496 26.496C25.872 27.12 24.96 27.552 24 27.552C22.08 27.552 20.448 25.968 20.448 24C20.448 22.032 22.032 20.496 24 20.496C24.96 20.496 25.872 20.88 26.496 21.504L26.736 21.744C26.88 21.936 27.024 22.128 27.12 22.32C27.408 22.8 27.552 23.376 27.552 24C27.504 24.576 27.36 25.152 27.12 25.68ZM24 18.72C21.12 18.72 18.768 21.072 18.768 23.952C18.768 26.832 21.12 29.184 24 29.184C26.88 29.184 29.232 26.88 29.232 24C29.232 21.072 26.88 18.72 24 18.72ZM27.12 25.68C27.024 25.872 26.88 26.064 26.736 26.256C26.688 26.352 26.592 26.448 26.496 26.496C25.872 27.12 24.96 27.552 24 27.552C22.08 27.552 20.448 25.968 20.448 24C20.448 22.032 22.032 20.496 24 20.496C24.96 20.496 25.872 20.88 26.496 21.504L26.736 21.744C26.88 21.936 27.024 22.128 27.12 22.32C27.408 22.8 27.552 23.376 27.552 24C27.504 24.576 27.36 25.152 27.12 25.68ZM33.504 22.176L31.824 21.888C31.632 21.216 31.392 20.592 31.008 19.968L31.968 18.576C32.064 18.432 32.064 18.24 31.92 18.096L29.856 16.032C29.712 15.888 29.52 15.888 29.376 15.984L27.984 16.944C27.36 16.608 26.736 16.32 26.064 16.176L25.776 14.496C25.728 14.304 25.584 14.208 25.44 14.208H22.512C22.32 14.208 22.176 14.352 22.176 14.496L21.888 16.176C21.216 16.368 20.592 16.608 19.968 16.944L18.576 15.984C18.432 15.888 18.24 15.888 18.096 16.032L16.032 18.096C15.888 18.24 15.888 18.432 15.984 18.576L16.944 19.968C16.608 20.592 16.32 21.216 16.176 21.888L14.496 22.176C14.304 22.224 14.208 22.368 14.208 22.512V25.44C14.208 25.632 14.352 25.776 14.496 25.776L16.176 26.064C16.368 26.736 16.608 27.36 16.944 27.984L15.984 29.376C15.888 29.52 15.888 29.712 16.032 29.856L18.096 31.968C18.24 32.112 18.432 32.112 18.576 32.016L19.968 31.056C20.592 31.392 21.216 31.68 21.888 31.824L22.176 33.504C22.224 33.696 22.368 33.792 22.512 33.792H25.44C25.632 33.792 25.776 33.648 25.776 33.504L26.064 31.824C26.736 31.68 27.36 31.392 27.984 31.056L29.376 32.016C29.52 32.112 29.712 32.112 29.856 31.968L31.92 29.856C32.064 29.712 32.064 29.52 31.968 29.376L31.008 27.984C31.344 27.36 31.632 26.736 31.824 26.064L33.504 25.776C33.696 25.728 33.792 25.584 33.792 25.44V22.512C33.84 22.368 33.696 22.224 33.504 22.176ZM24 29.952C20.688 29.952 18.048 27.264 18.048 24C18.048 20.688 20.736 18.048 24 18.048C27.312 18.048 29.952 20.736 29.952 24C29.952 27.264 27.312 29.952 24 29.952ZM24 18.72C21.12 18.72 18.768 21.072 18.768 23.952C18.768 26.832 21.12 29.184 24 29.184C26.88 29.184 29.232 26.88 29.232 24C29.232 21.072 26.88 18.72 24 18.72ZM27.12 25.68C27.024 25.872 26.88 26.064 26.736 26.256C26.688 26.352 26.592 26.448 26.496 26.496C25.872 27.12 24.96 27.552 24 27.552C22.08 27.552 20.448 25.968 20.448 24C20.448 22.032 22.032 20.496 24 20.496C24.96 20.496 25.872 20.88 26.496 21.504L26.736 21.744C26.88 21.936 27.024 22.128 27.12 22.32C27.408 22.8 27.552 23.376 27.552 24C27.504 24.576 27.36 25.152 27.12 25.68ZM25.584 10.272C25.584 11.04 25.008 11.712 24.288 11.856V13.44H23.568V11.904C22.848 11.76 22.272 11.088 22.272 10.32C22.272 9.40801 23.04 8.64001 23.952 8.64001C24.816 8.64001 25.584 9.36001 25.584 10.272ZM25.632 37.68C25.632 38.592 24.912 39.36 23.952 39.36C23.04 39.36 22.32 38.64 22.32 37.68C22.32 36.912 22.896 36.24 23.616 36.048V34.464H24.336V36.048C25.056 36.24 25.632 36.912 25.632 37.68Z" fill="url(#paint2_linear_188_1726)"/>
</g>
<g filter="url(#filter4_d_188_1726)">
<path d="M33.216 10.272C33.216 11.184 32.496 11.904 31.584 11.904C30.816 11.904 30.144 11.328 29.952 10.608H28.464C28.032 10.608 27.696 10.944 27.696 11.376V15.552C27.696 15.696 27.648 15.792 27.552 15.84C27.504 15.888 27.408 15.888 27.36 15.888C27.168 15.888 27.024 15.744 27.024 15.6V11.424C27.024 10.608 27.696 9.93601 28.512 9.93601H30C30.096 9.16801 30.768 8.64001 31.536 8.64001C32.448 8.64001 33.216 9.36001 33.216 10.272ZM33.072 37.68C33.072 38.592 32.352 39.36 31.44 39.36C30.672 39.36 30 38.784 29.808 38.064H28.32C27.504 38.064 26.832 37.392 26.832 36.576V32.352C26.832 32.16 27.024 32.016 27.168 32.016C27.264 32.016 27.36 32.064 27.408 32.112C27.456 32.16 27.552 32.256 27.552 32.4V36.576C27.552 37.008 27.888 37.344 28.32 37.344H29.808C29.952 36.624 30.624 36.048 31.44 36.048C32.352 36.048 33.072 36.768 33.072 37.68ZM21.072 11.424V15.648C21.024 15.792 20.88 15.936 20.736 15.936C20.64 15.936 20.592 15.936 20.544 15.888C20.448 15.84 20.4 15.696 20.4 15.6V11.424C20.4 10.992 20.064 10.656 19.632 10.656H18.144C17.952 11.376 17.328 11.952 16.512 11.952C15.6 11.952 14.832 11.232 14.832 10.32C14.832 9.40801 15.6 8.64001 16.512 8.64001C17.28 8.64001 17.952 9.21601 18.144 9.93601H19.632C20.352 9.93601 21.072 10.608 21.072 11.424ZM39.36 23.904C39.36 24.816 38.64 25.536 37.728 25.536C36.96 25.536 36.288 24.96 36.096 24.24H34.56V23.52H36.096C36.24 22.8 36.912 22.224 37.728 22.224C38.592 22.272 39.36 22.992 39.36 23.904ZM39.36 16.464C39.36 17.232 38.784 17.904 38.064 18.096V19.584C38.064 20.4 37.392 21.072 36.576 21.072H32.352C32.16 21.024 32.064 20.88 32.064 20.736C32.064 20.64 32.112 20.592 32.112 20.544C32.16 20.448 32.256 20.4 32.4 20.4H36.576C37.008 20.4 37.344 20.064 37.344 19.632V18.144C36.624 18 36.048 17.328 36.048 16.512C36.048 15.6 36.768 14.88 37.728 14.88C38.592 14.784 39.36 15.552 39.36 16.464ZM39.36 31.536C39.36 32.448 38.64 33.168 37.728 33.168C36.816 33.168 36.048 32.448 36.048 31.536C36.048 30.72 36.624 30.096 37.344 29.904V28.416C37.344 27.984 37.008 27.648 36.576 27.648H32.4C32.256 27.648 32.16 27.6 32.112 27.504C32.064 27.456 32.064 27.36 32.064 27.312C32.064 27.12 32.208 26.976 32.352 26.976H36.576C37.392 26.976 38.064 27.648 38.064 28.464V29.952C38.784 30.096 39.36 30.72 39.36 31.536ZM15.984 20.688C15.984 20.88 15.84 21.024 15.696 21.024H11.424C10.608 21.024 9.93601 20.352 9.93601 19.536V18.048C9.21601 17.904 8.64001 17.232 8.64001 16.464C8.64001 15.552 9.36001 14.832 10.272 14.832C11.184 14.832 11.952 15.552 11.952 16.464C11.952 17.232 11.376 17.904 10.656 18.096V19.584C10.656 20.016 10.992 20.352 11.424 20.352H15.552C15.696 20.352 15.792 20.4 15.84 20.496C15.936 20.544 15.984 20.592 15.984 20.688ZM13.488 23.568V24.288H11.904C11.76 25.008 11.088 25.584 10.272 25.584C9.36001 25.584 8.64001 24.864 8.64001 23.952C8.64001 23.04 9.36001 22.32 10.272 22.32C11.04 22.32 11.712 22.896 11.904 23.616H13.488V23.568ZM15.984 27.312C15.984 27.408 15.984 27.456 15.936 27.504C15.888 27.6 15.744 27.648 15.648 27.648H11.424C10.992 27.648 10.656 27.984 10.656 28.416V29.904C11.376 30.048 11.952 30.72 11.952 31.536C11.952 32.448 11.184 33.168 10.272 33.168C9.36001 33.168 8.64001 32.448 8.64001 31.536C8.64001 30.72 9.21601 30.096 9.93601 29.904V28.416C9.93601 27.6 10.608 26.928 11.424 26.928H15.6C15.84 26.976 15.984 27.12 15.984 27.312ZM20.928 32.4V36.576C20.928 37.392 20.256 38.064 19.44 38.064H17.952C17.76 38.784 17.136 39.36 16.32 39.36C15.408 39.36 14.64 38.64 14.64 37.68C14.64 36.768 15.408 36.048 16.32 36.048C17.088 36.048 17.76 36.624 17.952 37.344H19.44C19.872 37.344 20.208 37.008 20.208 36.576V32.4C20.208 32.256 20.304 32.112 20.448 32.064C20.496 32.064 20.544 32.016 20.592 32.016C20.736 32.016 20.88 32.112 20.928 32.256V32.4Z" fill="url(#paint3_linear_188_1726)"/>
</g>
</g>
<defs>
<filter id="filter0_b_188_1726" x="-15" y="-15" width="78" height="78" filterUnits="userSpaceOnUse" color-interpolation-filters="sRGB">
<feFlood flood-opacity="0" result="BackgroundImageFix"/>
<feGaussianBlur in="BackgroundImageFix" stdDeviation="7.5"/>
<feComposite in2="SourceAlpha" operator="in" result="effect1_backgroundBlur_188_1726"/>
<feBlend mode="normal" in="SourceGraphic" in2="effect1_backgroundBlur_188_1726" result="shape"/>
</filter>
<filter id="filter1_d_188_1726" x="5.21594" y="9.259" width="37.568" height="37.573" filterUnits="userSpaceOnUse" color-interpolation-filters="sRGB">
<feFlood flood-opacity="0" result="BackgroundImageFix"/>
<feColorMatrix in="SourceAlpha" type="matrix" values="0 0 0 0 0 0 0 0 0 0 0 0 0 0 0 0 0 0 127 0" result="hardAlpha"/>
<feOffset dy="4"/>
<feGaussianBlur stdDeviation="8"/>
<feComposite in2="hardAlpha" operator="out"/>
<feColorMatrix type="matrix" values="0 0 0 0 0.490196 0 0 0 0 0.356863 0 0 0 0 0.65098 0 0 0 1 0"/>
<feBlend mode="normal" in2="BackgroundImageFix" result="effect1_dropShadow_188_1726"/>
<feBlend mode="normal" in="SourceGraphic" in2="effect1_dropShadow_188_1726" result="shape"/>
</filter>
<filter id="filter2_d_188_1726" x="-0.352051" y="3.64801" width="48.7041" height="48.752" filterUnits="userSpaceOnUse" color-interpolation-filters="sRGB">
<feFlood flood-opacity="0" result="BackgroundImageFix"/>
<feColorMatrix in="SourceAlpha" type="matrix" values="0 0 0 0 0 0 0 0 0 0 0 0 0 0 0 0 0 0 127 0" result="hardAlpha"/>
<feOffset dy="4"/>
<feGaussianBlur stdDeviation="8"/>
<feComposite in2="hardAlpha" operator="out"/>
<feColorMatrix type="matrix" values="0 0 0 0 0.490196 0 0 0 0 0.356863 0 0 0 0 0.65098 0 0 0 1 0"/>
<feBlend mode="normal" in2="BackgroundImageFix" result="effect1_dropShadow_188_1726"/>
<feBlend mode="normal" in="SourceGraphic" in2="effect1_dropShadow_188_1726" result="shape"/>
</filter>
<filter id="filter3_d_188_1726" x="-1.79199" y="-3.35999" width="51.5933" height="62.72" filterUnits="userSpaceOnUse" color-interpolation-filters="sRGB">
<feFlood flood-opacity="0" result="BackgroundImageFix"/>
<feColorMatrix in="SourceAlpha" type="matrix" values="0 0 0 0 0 0 0 0 0 0 0 0 0 0 0 0 0 0 127 0" result="hardAlpha"/>
<feOffset dy="4"/>
<feGaussianBlur stdDeviation="8"/>
<feComposite in2="hardAlpha" operator="out"/>
<feColorMatrix type="matrix" values="0 0 0 0 0.490196 0 0 0 0 0.356863 0 0 0 0 0.65098 0 0 0 1 0"/>
<feBlend mode="normal" in2="BackgroundImageFix" result="effect1_dropShadow_188_1726"/>
<feBlend mode="normal" in="SourceGraphic" in2="effect1_dropShadow_188_1726" result="shape"/>
</filter>
<filter id="filter4_d_188_1726" x="-7.35999" y="-3.35999" width="62.7201" height="62.72" filterUnits="userSpaceOnUse" color-interpolation-filters="sRGB">
<feFlood flood-opacity="0" result="BackgroundImageFix"/>
<feColorMatrix in="SourceAlpha" type="matrix" values="0 0 0 0 0 0 0 0 0 0 0 0 0 0 0 0 0 0 127 0" result="hardAlpha"/>
<feOffset dy="4"/>
<feGaussianBlur stdDeviation="8"/>
<feComposite in2="hardAlpha" operator="out"/>
<feColorMatrix type="matrix" values="0 0 0 0 0.490196 0 0 0 0 0.356863 0 0 0 0 0.65098 0 0 0 1 0"/>
<feBlend mode="normal" in2="BackgroundImageFix" result="effect1_dropShadow_188_1726"/>
<feBlend mode="normal" in="SourceGraphic" in2="effect1_dropShadow_188_1726" result="shape"/>
</filter>
<linearGradient id="paint0_linear_188_1726" x1="23.9999" y1="21.259" x2="23.9999" y2="26.832" gradientUnits="userSpaceOnUse">
<stop stop-color="#7D5BA6"/>
<stop offset="1" stop-color="#B19CC9"/>
</linearGradient>
<linearGradient id="paint1_linear_188_1726" x1="24" y1="15.648" x2="24" y2="32.4" gradientUnits="userSpaceOnUse">
<stop stop-color="#7D5BA6"/>
<stop offset="1" stop-color="#B19CC9"/>
</linearGradient>
<linearGradient id="paint2_linear_188_1726" x1="24.0047" y1="8.64001" x2="24.0047" y2="39.36" gradientUnits="userSpaceOnUse">
<stop stop-color="#7D5BA6"/>
<stop offset="1" stop-color="#B19CC9"/>
</linearGradient>
<linearGradient id="paint3_linear_188_1726" x1="24" y1="8.64001" x2="24" y2="39.36" gradientUnits="userSpaceOnUse">
<stop stop-color="#7D5BA6"/>
<stop offset="1" stop-color="#B19CC9"/>
</linearGradient>
<linearGradient id="paint4_linear_188_1726" x1="-10.112" y1="-3.45813" x2="2.89239" y2="57.7897" gradientUnits="userSpaceOnUse">
<stop stop-color="white" stop-opacity="0.2"/>
<stop offset="1" stop-color="white" stop-opacity="0"/>
</linearGradient>
<clipPath id="clip0_188_1726">
<rect width="48" height="48" rx="4" fill="white"/>
</clipPath>
</defs>
</svg>
