<svg width="48" height="48" viewBox="0 0 48 48" fill="none" xmlns="http://www.w3.org/2000/svg">
<g clip-path="url(#clip0_188_2046)" filter="url(#filter0_b_188_2046)">
<rect width="48" height="48" rx="4" fill="#FAFFFD" fill-opacity="0.02"/>
<g filter="url(#filter1_d_188_2046)">
<path d="M17.3868 31V28.12L23.4588 23.416C25.4268 21.856 26.0508 20.776 26.0508 19.624C26.0508 18.256 24.8988 17.44 23.5548 17.44C21.9468 17.44 20.7228 18.256 19.5228 19.624L17.2668 17.44C18.8988 15.376 20.9868 14.224 23.6508 14.224C27.1548 14.224 29.6988 16.384 29.6988 19.48C29.6988 21.688 28.7388 23.392 25.8588 25.48L22.8588 27.808H29.8428V31H17.3868Z" fill="url(#paint0_linear_188_2046)"/>
</g>
</g>
<defs>
<filter id="filter0_b_188_2046" x="-15" y="-15" width="78" height="78" filterUnits="userSpaceOnUse" color-interpolation-filters="sRGB">
<feFlood flood-opacity="0" result="BackgroundImageFix"/>
<feGaussianBlur in="BackgroundImageFix" stdDeviation="7.5"/>
<feComposite in2="SourceAlpha" operator="in" result="effect1_backgroundBlur_188_2046"/>
<feBlend mode="normal" in="SourceGraphic" in2="effect1_backgroundBlur_188_2046" result="shape"/>
</filter>
<filter id="filter1_d_188_2046" x="1.26685" y="2.224" width="44.5759" height="48.776" filterUnits="userSpaceOnUse" color-interpolation-filters="sRGB">
<feFlood flood-opacity="0" result="BackgroundImageFix"/>
<feColorMatrix in="SourceAlpha" type="matrix" values="0 0 0 0 0 0 0 0 0 0 0 0 0 0 0 0 0 0 127 0" result="hardAlpha"/>
<feOffset dy="4"/>
<feGaussianBlur stdDeviation="8"/>
<feComposite in2="hardAlpha" operator="out"/>
<feColorMatrix type="matrix" values="0 0 0 0 0.490196 0 0 0 0 0.356863 0 0 0 0 0.65098 0 0 0 1 0"/>
<feBlend mode="normal" in2="BackgroundImageFix" result="effect1_dropShadow_188_2046"/>
<feBlend mode="normal" in="SourceGraphic" in2="effect1_dropShadow_188_2046" result="shape"/>
</filter>
<linearGradient id="paint0_linear_188_2046" x1="23.6667" y1="10" x2="23.6667" y2="38" gradientUnits="userSpaceOnUse">
<stop stop-color="#7D5BA6"/>
<stop offset="1" stop-color="#B19CC9"/>
</linearGradient>
<linearGradient id="paint1_linear_188_2046" x1="-10.112" y1="-3.45813" x2="2.89239" y2="57.7897" gradientUnits="userSpaceOnUse">
<stop stop-color="white" stop-opacity="0.2"/>
<stop offset="1" stop-color="white" stop-opacity="0"/>
</linearGradient>
<clipPath id="clip0_188_2046">
<rect width="48" height="48" rx="4" fill="white"/>
</clipPath>
</defs>
</svg>
