<svg height="48" viewBox="0 0 48 48" fill="none" xmlns="http://www.w3.org/2000/svg">
<g clip-path="url(#clip0_188_2053)" filter="url(#filter0_b_188_2053)">
<rect width="48" height="48" rx="4" fill="#FAFFFD" fill-opacity="0.02"/>
<g filter="url(#filter1_d_188_2053)">
<path d="M23.6374 31.312C20.6614 31.312 18.4054 30.136 17.0134 28.528L19.1014 26.176C20.2534 27.424 21.8134 28.12 23.4694 28.12C25.2934 28.12 26.3494 27.28 26.3494 26.104C26.3494 24.832 25.3654 24.184 23.1334 24.208H21.2374V21.184L23.1334 21.208C24.9334 21.208 26.0134 20.536 26.0134 19.36C26.0134 18.16 24.8854 17.392 23.2534 17.392C21.6934 17.392 20.4694 18.16 19.3654 19.312L17.3254 17.152C18.6934 15.496 20.6614 14.224 23.5894 14.224C27.3094 14.224 29.6374 16.12 29.6374 18.736C29.6374 20.632 28.3414 22 26.5414 22.528C28.3414 22.936 29.9974 24.208 29.9974 26.392C29.9974 29.248 27.4774 31.312 23.6374 31.312Z" fill="url(#paint0_linear_188_2053)"/>
</g>
</g>
<defs>
<filter id="filter0_b_188_2053" x="-15" y="-15" width="78" height="78" filterUnits="userSpaceOnUse" color-interpolation-filters="sRGB">
<feFlood flood-opacity="0" result="BackgroundImageFix"/>
<feGaussianBlur in="BackgroundImageFix" stdDeviation="7.5"/>
<feComposite in2="SourceAlpha" operator="in" result="effect1_backgroundBlur_188_2053"/>
<feBlend mode="normal" in="SourceGraphic" in2="effect1_backgroundBlur_188_2053" result="shape"/>
</filter>
<filter id="filter1_d_188_2053" x="1.01343" y="2.224" width="44.9839" height="49.088" filterUnits="userSpaceOnUse" color-interpolation-filters="sRGB">
<feFlood flood-opacity="0" result="BackgroundImageFix"/>
<feColorMatrix in="SourceAlpha" type="matrix" values="0 0 0 0 0 0 0 0 0 0 0 0 0 0 0 0 0 0 127 0" result="hardAlpha"/>
<feOffset dy="4"/>
<feGaussianBlur stdDeviation="8"/>
<feComposite in2="hardAlpha" operator="out"/>
<feColorMatrix type="matrix" values="0 0 0 0 0.490196 0 0 0 0 0.356863 0 0 0 0 0.65098 0 0 0 1 0"/>
<feBlend mode="normal" in2="BackgroundImageFix" result="effect1_dropShadow_188_2053"/>
<feBlend mode="normal" in="SourceGraphic" in2="effect1_dropShadow_188_2053" result="shape"/>
</filter>
<linearGradient id="paint0_linear_188_2053" x1="23.6667" y1="10" x2="23.6667" y2="38" gradientUnits="userSpaceOnUse">
<stop stop-color="#7D5BA6"/>
<stop offset="1" stop-color="#B19CC9"/>
</linearGradient>
<linearGradient id="paint1_linear_188_2053" x1="-10.112" y1="-3.45813" x2="2.89239" y2="57.7897" gradientUnits="userSpaceOnUse">
<stop stop-color="white" stop-opacity="0.2"/>
<stop offset="1" stop-color="white" stop-opacity="0"/>
</linearGradient>
<clipPath id="clip0_188_2053">
<rect width="48" height="48" rx="4" fill="white"/>
</clipPath>
</defs>
</svg>
