<svg xmlns="http://www.w3.org/2000/svg" width="24" height="24" viewBox="0 0 24 24">
    <path
        d="M12.0001 19.9825V23.9737C10.6 23.9737 9.25665 23.7332 8.00886 23.291C6.5216 22.7669 5.16877 21.955 4.01761 20.9236V23.9737H0.0263672V12H4.01761C4.01761 13.4537 4.40624 14.817 5.08685 15.9912C5.78637 17.2033 6.79678 18.2137 8.00886 18.9133C9.18313 19.5939 10.5465 19.9825 12.0001 19.9825Z"
        fill="#FAFFFD" stroke="#FAFFFD" stroke-width="0.5" stroke-miterlimit="10" />
    <path
        d="M23.9737 0.0263672V12.0001H19.9825C19.9825 10.5465 19.5939 9.18313 18.9133 8.00886C18.2137 6.79678 17.2033 5.78637 15.9912 5.08685C14.817 4.40624 13.4537 4.01761 12 4.01761V0.0263672C13.4001 0.0263672 14.7435 0.266892 15.9912 0.709081C17.4785 1.23319 18.8313 2.0451 19.9825 3.07652V0.0263672H23.9737Z"
        fill="#FAFFFD" stroke="#FAFFFD" stroke-width="0.5" stroke-miterlimit="10" />
    <path
        d="M12 15.9913C14.2043 15.9913 15.9913 14.2043 15.9913 12C15.9913 9.79573 14.2043 8.00879 12 8.00879C9.79573 8.00879 8.00879 9.79573 8.00879 12C8.00879 14.2043 9.79573 15.9913 12 15.9913Z"
        fill="#FAFFFD" stroke="#FAFFFD" stroke-width="0.5" stroke-miterlimit="10" />
</svg>
